<svg width="24" height="24" viewBox="0 0 24 24" fill="none" xmlns="http://www.w3.org/2000/svg">
<path d="M3.83998 3.84C2.78526 3.84 1.91998 4.70528 1.91998 5.76V16.32C1.91998 16.6707 2.02253 16.996 2.18904 17.28H0.959981C0.694541 17.28 0.47998 17.495 0.47998 17.76C0.47998 19.0834 1.55662 20.16 2.87998 20.16H21.12C22.4433 20.16 23.52 19.0834 23.52 17.76C23.52 17.495 23.3054 17.28 23.04 17.28H21.8109C21.9774 16.996 22.08 16.6707 22.08 16.32V5.76C22.08 4.70528 21.2147 3.84 20.16 3.84H3.83998ZM3.83998 4.8H20.16C20.696 4.8 21.12 5.224 21.12 5.76V16.32C21.12 16.856 20.696 17.28 20.16 17.28H3.83998C3.30398 17.28 2.87998 16.856 2.87998 16.32V5.76C2.87998 5.224 3.30398 4.8 3.83998 4.8ZM9.59998 8.02687V14.0531L14.8725 11.04L9.59998 8.02687Z" fill="white"/>
</svg>
