<svg width="120" height="120" viewBox="0 0 120 120" fill="none" xmlns="http://www.w3.org/2000/svg">
<g clip-path="url(#clip0_105_5)">
<path d="M8.0458 1.86931L8.0458 1.86931C8.49768 1.68057 8.95481 1.56597 9.41128 1.52182C10.7997 1.38756 12.2085 1.87524 13.2307 2.90906L13.2326 2.91091L35.1537 25.0031L35.8751 25.7302L36.8149 25.3229C43.9339 22.2375 52.3099 20.4508 60 20.4508C67.5568 20.4508 75.4806 22.138 83.1339 25.3888L84.0692 25.7862L84.7851 25.0648L106.767 2.91092L106.769 2.90905C108.131 1.53213 110.167 1.12535 111.955 1.86956C113.734 2.61313 114.9 4.36755 114.9 6.31969V69.4754C114.9 96.3541 90.4324 118.5 60 118.5C29.5676 118.5 5.09998 96.3541 5.09998 69.4754V6.31969C5.09998 4.36733 6.26587 2.61273 8.0458 1.86931ZM48.9667 60.0021C48.9667 53.9484 44.0942 49.0287 38.0666 49.0287C32.0391 49.0287 27.1666 53.9484 27.1666 60.0021C27.1666 66.0557 32.0391 70.9754 38.0666 70.9754C44.0942 70.9754 48.9667 66.0557 48.9667 60.0021ZM92.8333 60.0021C92.8333 53.9484 87.9609 49.0287 81.9333 49.0287C75.9058 49.0287 71.0333 53.9484 71.0333 60.0021C71.0333 66.0557 75.9058 70.9754 81.9333 70.9754C87.9609 70.9754 92.8333 66.0557 92.8333 60.0021Z" fill="white" stroke="black" stroke-width="3"/>
<circle cx="37.2" cy="60" r="13.2" fill="#41BA66"/>
<circle cx="82.8" cy="60" r="13.2" fill="#41BA66"/>
<path d="M62.332 97.8C61.5622 99.1334 59.6377 99.1334 58.8679 97.8L51.4201 84.9C50.6503 83.5667 51.6125 81.9 53.1521 81.9H68.0478C69.5874 81.9 70.5496 83.5667 69.7798 84.9L62.332 97.8Z" fill="#121927"/>
</g>
<defs>
<clipPath id="clip0_105_5">
<rect width="120" height="120" fill="white"/>
</clipPath>
</defs>
</svg>
