<svg width="306" height="180" viewBox="0 0 306 180" fill="none" xmlns="http://www.w3.org/2000/svg">
<rect width="306" height="180" fill="white"/>
<path d="M39.0227 150V126.727H54.4318V130.784H43.9432V136.33H53.4091V140.386H43.9432V150H39.0227Z" fill="black"/>
<path d="M64.2557 150.341C62.4905 150.341 60.964 149.966 59.6761 149.216C58.3958 148.458 57.4072 147.405 56.7102 146.057C56.0132 144.701 55.6648 143.129 55.6648 141.341C55.6648 139.538 56.0132 137.962 56.7102 136.614C57.4072 135.258 58.3958 134.205 59.6761 133.455C60.964 132.697 62.4905 132.318 64.2557 132.318C66.0208 132.318 67.5435 132.697 68.8238 133.455C70.1117 134.205 71.1041 135.258 71.8011 136.614C72.4981 137.962 72.8466 139.538 72.8466 141.341C72.8466 143.129 72.4981 144.701 71.8011 146.057C71.1041 147.405 70.1117 148.458 68.8238 149.216C67.5435 149.966 66.0208 150.341 64.2557 150.341ZM64.2784 146.591C65.0814 146.591 65.7519 146.364 66.2898 145.909C66.8276 145.447 67.2329 144.818 67.5057 144.023C67.786 143.227 67.9261 142.322 67.9261 141.307C67.9261 140.292 67.786 139.386 67.5057 138.591C67.2329 137.795 66.8276 137.167 66.2898 136.705C65.7519 136.242 65.0814 136.011 64.2784 136.011C63.4678 136.011 62.786 136.242 62.2329 136.705C61.6875 137.167 61.2746 137.795 60.9943 138.591C60.7216 139.386 60.5852 140.292 60.5852 141.307C60.5852 142.322 60.7216 143.227 60.9943 144.023C61.2746 144.818 61.6875 145.447 62.2329 145.909C62.786 146.364 63.4678 146.591 64.2784 146.591Z" fill="black"/>
<path d="M80.8352 139.909V150H75.9943V132.545H80.6079V135.625H80.8125C81.1988 134.61 81.8466 133.807 82.7557 133.216C83.6648 132.617 84.767 132.318 86.0625 132.318C87.2746 132.318 88.3314 132.583 89.2329 133.114C90.1344 133.644 90.8352 134.402 91.3352 135.386C91.8352 136.364 92.0852 137.53 92.0852 138.886V150H87.2443V139.75C87.2519 138.682 86.9791 137.849 86.4261 137.25C85.8731 136.644 85.1117 136.341 84.142 136.341C83.4905 136.341 82.9147 136.481 82.4147 136.761C81.9223 137.042 81.536 137.451 81.2557 137.989C80.9829 138.519 80.8428 139.159 80.8352 139.909Z" fill="black"/>
<path d="M105.185 132.545V136.182H94.6733V132.545H105.185ZM97.0596 128.364H101.901V144.636C101.901 145.083 101.969 145.432 102.105 145.682C102.241 145.924 102.431 146.095 102.673 146.193C102.923 146.292 103.211 146.341 103.537 146.341C103.764 146.341 103.991 146.322 104.219 146.284C104.446 146.239 104.62 146.205 104.741 146.182L105.503 149.784C105.26 149.86 104.919 149.947 104.48 150.045C104.041 150.152 103.507 150.216 102.878 150.239C101.711 150.284 100.688 150.129 99.8096 149.773C98.9384 149.417 98.2604 148.864 97.7755 148.114C97.2907 147.364 97.0521 146.417 97.0596 145.273V128.364Z" fill="black"/>
<path d="M119.847 150H114.574L122.608 126.727H128.949L136.972 150H131.699L125.869 132.045H125.687L119.847 150ZM119.517 140.852H131.972V144.693H119.517V140.852Z" fill="black"/>
<path d="M140.937 150L136.187 132.545H141.085L143.79 144.273H143.949L146.767 132.545H151.574L154.437 144.205H154.585L157.244 132.545H162.131L157.392 150H152.267L149.267 139.023H149.051L146.051 150H140.937Z" fill="black"/>
<path d="M172.23 150.341C170.435 150.341 168.889 149.977 167.594 149.25C166.306 148.515 165.313 147.477 164.616 146.136C163.919 144.788 163.571 143.193 163.571 141.352C163.571 139.557 163.919 137.981 164.616 136.625C165.313 135.269 166.294 134.212 167.56 133.455C168.832 132.697 170.325 132.318 172.037 132.318C173.188 132.318 174.26 132.504 175.253 132.875C176.253 133.239 177.124 133.788 177.866 134.523C178.616 135.258 179.2 136.182 179.616 137.295C180.033 138.402 180.241 139.697 180.241 141.182V142.511H165.503V139.511H175.685C175.685 138.814 175.533 138.197 175.23 137.659C174.927 137.121 174.507 136.701 173.969 136.398C173.438 136.087 172.821 135.932 172.116 135.932C171.382 135.932 170.73 136.102 170.162 136.443C169.601 136.777 169.162 137.227 168.844 137.795C168.526 138.356 168.363 138.981 168.355 139.67V142.523C168.355 143.386 168.514 144.133 168.832 144.761C169.158 145.39 169.616 145.875 170.207 146.216C170.798 146.557 171.499 146.727 172.31 146.727C172.848 146.727 173.34 146.652 173.787 146.5C174.234 146.349 174.616 146.121 174.935 145.818C175.253 145.515 175.495 145.144 175.662 144.705L180.139 145C179.912 146.076 179.446 147.015 178.741 147.818C178.044 148.614 177.143 149.235 176.037 149.682C174.938 150.121 173.669 150.341 172.23 150.341Z" fill="black"/>
<path d="M197.923 137.523L193.491 137.795C193.416 137.417 193.253 137.076 193.003 136.773C192.753 136.462 192.423 136.216 192.014 136.034C191.613 135.845 191.132 135.75 190.571 135.75C189.821 135.75 189.188 135.909 188.673 136.227C188.158 136.538 187.901 136.955 187.901 137.477C187.901 137.894 188.067 138.246 188.401 138.534C188.734 138.822 189.306 139.053 190.116 139.227L193.276 139.864C194.973 140.212 196.238 140.773 197.071 141.545C197.904 142.318 198.321 143.333 198.321 144.591C198.321 145.735 197.984 146.739 197.31 147.602C196.643 148.466 195.726 149.14 194.56 149.625C193.401 150.102 192.063 150.341 190.548 150.341C188.238 150.341 186.397 149.86 185.026 148.898C183.662 147.928 182.863 146.61 182.628 144.943L187.389 144.693C187.533 145.398 187.882 145.936 188.435 146.307C188.988 146.67 189.696 146.852 190.56 146.852C191.408 146.852 192.09 146.689 192.605 146.364C193.128 146.03 193.393 145.602 193.401 145.08C193.393 144.64 193.207 144.28 192.844 144C192.48 143.712 191.919 143.492 191.162 143.341L188.139 142.739C186.435 142.398 185.166 141.807 184.332 140.966C183.507 140.125 183.094 139.053 183.094 137.75C183.094 136.629 183.397 135.663 184.003 134.852C184.616 134.042 185.476 133.417 186.582 132.977C187.696 132.538 188.999 132.318 190.491 132.318C192.696 132.318 194.431 132.784 195.696 133.716C196.969 134.648 197.711 135.917 197.923 137.523Z" fill="black"/>
<path d="M209.256 150.341C207.491 150.341 205.964 149.966 204.676 149.216C203.396 148.458 202.407 147.405 201.71 146.057C201.013 144.701 200.665 143.129 200.665 141.341C200.665 139.538 201.013 137.962 201.71 136.614C202.407 135.258 203.396 134.205 204.676 133.455C205.964 132.697 207.491 132.318 209.256 132.318C211.021 132.318 212.544 132.697 213.824 133.455C215.112 134.205 216.104 135.258 216.801 136.614C217.498 137.962 217.847 139.538 217.847 141.341C217.847 143.129 217.498 144.701 216.801 146.057C216.104 147.405 215.112 148.458 213.824 149.216C212.544 149.966 211.021 150.341 209.256 150.341ZM209.278 146.591C210.081 146.591 210.752 146.364 211.29 145.909C211.828 145.447 212.233 144.818 212.506 144.023C212.786 143.227 212.926 142.322 212.926 141.307C212.926 140.292 212.786 139.386 212.506 138.591C212.233 137.795 211.828 137.167 211.29 136.705C210.752 136.242 210.081 136.011 209.278 136.011C208.468 136.011 207.786 136.242 207.233 136.705C206.687 137.167 206.275 137.795 205.994 138.591C205.722 139.386 205.585 140.292 205.585 141.307C205.585 142.322 205.722 143.227 205.994 144.023C206.275 144.818 206.687 145.447 207.233 145.909C207.786 146.364 208.468 146.591 209.278 146.591Z" fill="black"/>
<path d="M220.994 150V132.545H225.608V135.625H225.812C226.176 134.602 226.782 133.795 227.631 133.205C228.479 132.614 229.494 132.318 230.676 132.318C231.873 132.318 232.892 132.617 233.733 133.216C234.574 133.807 235.134 134.61 235.415 135.625H235.597C235.953 134.625 236.597 133.826 237.528 133.227C238.468 132.621 239.578 132.318 240.858 132.318C242.487 132.318 243.809 132.837 244.824 133.875C245.847 134.905 246.358 136.367 246.358 138.261V150H241.528V139.216C241.528 138.246 241.271 137.519 240.756 137.034C240.241 136.549 239.597 136.307 238.824 136.307C237.945 136.307 237.259 136.587 236.767 137.148C236.275 137.701 236.028 138.432 236.028 139.341V150H231.335V139.114C231.335 138.258 231.089 137.576 230.597 137.068C230.112 136.561 229.472 136.307 228.676 136.307C228.138 136.307 227.653 136.443 227.222 136.716C226.797 136.981 226.46 137.356 226.21 137.841C225.96 138.318 225.835 138.879 225.835 139.523V150H220.994Z" fill="black"/>
<path d="M258.136 150.341C256.341 150.341 254.795 149.977 253.5 149.25C252.212 148.515 251.22 147.477 250.523 146.136C249.826 144.788 249.477 143.193 249.477 141.352C249.477 139.557 249.826 137.981 250.523 136.625C251.22 135.269 252.201 134.212 253.466 133.455C254.739 132.697 256.231 132.318 257.943 132.318C259.095 132.318 260.167 132.504 261.159 132.875C262.159 133.239 263.03 133.788 263.773 134.523C264.523 135.258 265.106 136.182 265.523 137.295C265.939 138.402 266.148 139.697 266.148 141.182V142.511H251.409V139.511H261.591C261.591 138.814 261.439 138.197 261.136 137.659C260.833 137.121 260.413 136.701 259.875 136.398C259.345 136.087 258.727 135.932 258.023 135.932C257.288 135.932 256.636 136.102 256.068 136.443C255.508 136.777 255.068 137.227 254.75 137.795C254.432 138.356 254.269 138.981 254.261 139.67V142.523C254.261 143.386 254.42 144.133 254.739 144.761C255.064 145.39 255.523 145.875 256.114 146.216C256.705 146.557 257.405 146.727 258.216 146.727C258.754 146.727 259.246 146.652 259.693 146.5C260.14 146.349 260.523 146.121 260.841 145.818C261.159 145.515 261.401 145.144 261.568 144.705L266.045 145C265.818 146.076 265.352 147.015 264.648 147.818C263.951 148.614 263.049 149.235 261.943 149.682C260.845 150.121 259.576 150.341 258.136 150.341Z" fill="black"/>
<g clip-path="url(#clip0_218_51)">
<path d="M152.794 37C152.144 37.1031 151.67 37.6652 151.68 38.32V51.52H137.16C137.119 51.52 137.078 51.52 137.036 51.52C136.706 51.5458 136.397 51.6902 136.17 51.9325V51.9737C136.139 51.9995 136.113 52.0253 136.088 52.0562L120.33 69.0925C119.964 69.4792 119.866 70.0516 120.083 70.5362C120.299 71.0261 120.789 71.3303 121.32 71.32H134.52V85.84C134.51 86.2112 134.659 86.5722 134.933 86.83L152.093 102.67C152.479 103.036 153.052 103.134 153.536 102.917C154.026 102.701 154.33 102.211 154.32 101.68V88.48H168.84C169.211 88.4903 169.572 88.3408 169.83 88.0675L185.67 70.9075C186.036 70.5208 186.134 69.9484 185.918 69.4637C185.701 68.9739 185.211 68.6697 184.68 68.68H171.48V54.16C171.49 53.7887 171.341 53.4278 171.068 53.17L153.908 37.33C153.608 37.0516 153.196 36.933 152.794 37ZM154.32 41.3725L168.18 54.16L155.97 66.37C154.954 65.1995 154.32 63.6784 154.32 61.9975V52.84C154.32 52.7987 154.32 52.7575 154.32 52.7162V41.3725ZM137.16 54.82L149.37 67.03C148.2 68.0458 146.678 68.68 144.998 68.68H124.373L137.16 54.82ZM153 66.7825C153.789 68.0973 154.903 69.2111 156.218 70C154.903 70.7889 153.789 71.9027 153 73.2175C152.211 71.9027 151.097 70.7889 149.783 70C151.097 69.2111 152.211 68.0973 153 66.7825ZM161.003 71.32H181.628L168.84 85.18L156.63 72.97C157.801 71.9542 159.322 71.32 161.003 71.32ZM150.03 73.63C151.046 74.8005 151.68 76.3216 151.68 78.0025V87.16C151.68 87.2012 151.68 87.2425 151.68 87.2837V98.6275L137.82 85.84L150.03 73.63Z" fill="black"/>
</g>
<defs>
<clipPath id="clip0_218_51">
<rect width="66" height="66" fill="white" transform="translate(120 37)"/>
</clipPath>
</defs>
</svg>
