<svg width="306" height="180" viewBox="0 0 306 180" fill="none" xmlns="http://www.w3.org/2000/svg">
<g clip-path="url(#clip0_138_37)">
<rect width="306" height="180" fill="#E6E6E6"/>
<g filter="url(#filter0_ddddd_138_37)">
<rect x="9" y="68" width="100" height="100" rx="50" fill="#9E85E6"/>
</g>
<g filter="url(#filter1_ddddd_138_37)">
<rect x="195" y="5" width="100" height="100" rx="50" fill="#9E85E6"/>
</g>
<g filter="url(#filter2_b_138_37)">
<rect width="306" height="180" fill="white" fill-opacity="0.6"/>
</g>
<rect x="109" y="78" width="89" height="24" rx="12" fill="white"/>
<path d="M120.604 94V88.5455H122.93C123.602 88.5455 124.134 88.6733 124.524 88.929C124.915 89.1847 125.11 89.5481 125.11 90.0192C125.11 90.3151 125 90.5613 124.78 90.7578C124.56 90.9543 124.254 91.0869 123.864 91.1555C124.19 91.1792 124.469 91.2538 124.698 91.3793C124.93 91.5024 125.107 91.6622 125.227 91.8587C125.35 92.0552 125.412 92.273 125.412 92.5121C125.412 92.8222 125.329 93.0885 125.163 93.3111C125 93.5336 124.76 93.7041 124.442 93.8224C124.128 93.9408 123.743 94 123.288 94H120.604ZM122.013 92.8672H123.288C123.499 92.8672 123.664 92.8175 123.782 92.718C123.903 92.6162 123.963 92.4777 123.963 92.3026C123.963 92.1084 123.903 91.9557 123.782 91.8445C123.664 91.7332 123.499 91.6776 123.288 91.6776H122.013V92.8672ZM122.013 90.7898H122.962C123.113 90.7898 123.242 90.7685 123.349 90.7259C123.458 90.6809 123.54 90.617 123.597 90.5341C123.656 90.4512 123.686 90.353 123.686 90.2393C123.686 90.0713 123.619 89.9399 123.484 89.8452C123.349 89.7505 123.164 89.7031 122.93 89.7031H122.013V90.7898ZM128.68 96.0455V88.5455H130.171V89.4616H130.239C130.305 89.3149 130.401 89.1657 130.526 89.0142C130.654 88.8603 130.82 88.7325 131.024 88.6307C131.23 88.5265 131.485 88.4744 131.791 88.4744C132.188 88.4744 132.555 88.5786 132.892 88.7869C133.228 88.9929 133.496 89.3042 133.698 89.7209C133.899 90.1352 133.999 90.6548 133.999 91.2798C133.999 91.8883 133.901 92.402 133.705 92.821C133.511 93.2377 133.245 93.5537 132.909 93.7692C132.575 93.9822 132.201 94.0888 131.787 94.0888C131.494 94.0888 131.244 94.0402 131.038 93.9432C130.834 93.8461 130.667 93.7242 130.537 93.5774C130.407 93.4283 130.307 93.2779 130.239 93.1264H130.193V96.0455H128.68ZM130.161 91.2727C130.161 91.5971 130.206 91.88 130.296 92.1214C130.386 92.3629 130.516 92.5511 130.686 92.6861C130.857 92.8187 131.064 92.8849 131.308 92.8849C131.554 92.8849 131.762 92.8175 131.933 92.6825C132.103 92.5452 132.232 92.3558 132.32 92.1143C132.41 91.8705 132.455 91.59 132.455 91.2727C132.455 90.9579 132.411 90.6809 132.323 90.4418C132.236 90.2027 132.107 90.0156 131.936 89.8807C131.766 89.7457 131.556 89.6783 131.308 89.6783C131.061 89.6783 130.853 89.7434 130.683 89.8736C130.515 90.0038 130.386 90.1884 130.296 90.4276C130.206 90.6667 130.161 90.9484 130.161 91.2727ZM136.563 94.103C136.215 94.103 135.905 94.0426 135.633 93.9219C135.361 93.7988 135.145 93.6177 134.987 93.3786C134.83 93.1371 134.752 92.8364 134.752 92.4766C134.752 92.1735 134.808 91.919 134.919 91.7131C135.03 91.5071 135.182 91.3414 135.374 91.2159C135.566 91.0904 135.783 90.9957 136.027 90.9318C136.273 90.8679 136.531 90.8229 136.801 90.7969C137.119 90.7637 137.374 90.733 137.568 90.7045C137.762 90.6738 137.903 90.6288 137.991 90.5696C138.079 90.5104 138.122 90.4228 138.122 90.3068V90.2855C138.122 90.0606 138.051 89.8866 137.909 89.7635C137.77 89.6404 137.571 89.5788 137.313 89.5788C137.04 89.5788 136.824 89.6392 136.663 89.7599C136.502 89.8783 136.395 90.0275 136.343 90.2074L134.944 90.0938C135.015 89.7623 135.155 89.4759 135.363 89.2344C135.571 88.9905 135.84 88.8035 136.169 88.6733C136.501 88.5407 136.884 88.4744 137.32 88.4744C137.623 88.4744 137.913 88.5099 138.19 88.581C138.469 88.652 138.717 88.7621 138.932 88.9112C139.15 89.0604 139.321 89.2521 139.447 89.4865C139.572 89.7185 139.635 89.9967 139.635 90.321V94H138.2V93.2436H138.158C138.07 93.4141 137.953 93.5644 137.806 93.6946C137.66 93.8224 137.483 93.9231 137.277 93.9964C137.071 94.0675 136.833 94.103 136.563 94.103ZM136.997 93.0589C137.219 93.0589 137.416 93.0152 137.586 92.9276C137.757 92.8376 137.89 92.7169 137.987 92.5653C138.084 92.4138 138.133 92.2422 138.133 92.0504V91.4716C138.086 91.5024 138.021 91.5308 137.938 91.5568C137.857 91.5805 137.766 91.603 137.664 91.6243C137.562 91.6432 137.461 91.661 137.359 91.6776C137.257 91.6918 137.165 91.7048 137.082 91.7166C136.904 91.7427 136.749 91.7841 136.617 91.8409C136.484 91.8977 136.381 91.9747 136.308 92.0717C136.234 92.1664 136.198 92.2848 136.198 92.4268C136.198 92.6328 136.272 92.7902 136.421 92.8991C136.573 93.0057 136.765 93.0589 136.997 93.0589ZM140.528 92.4553H141.995C142.002 92.6352 142.082 92.7772 142.236 92.8814C142.39 92.9856 142.589 93.0376 142.833 93.0376C143.079 93.0376 143.286 92.9808 143.454 92.8672C143.622 92.7512 143.706 92.5855 143.706 92.37C143.706 92.2375 143.673 92.1226 143.607 92.0256C143.541 91.9261 143.448 91.848 143.33 91.7912C143.212 91.7344 143.074 91.706 142.918 91.706H142.133V90.7152H142.918C143.153 90.7152 143.332 90.6607 143.458 90.5518C143.586 90.4429 143.65 90.3068 143.65 90.1435C143.65 89.9588 143.583 89.8108 143.451 89.6996C143.321 89.5859 143.144 89.5291 142.922 89.5291C142.697 89.5291 142.51 89.58 142.361 89.6818C142.214 89.7812 142.138 89.9115 142.133 90.0724H140.674C140.679 89.7457 140.777 89.4628 140.969 89.2237C141.163 88.9846 141.423 88.8 141.75 88.6697C142.079 88.5395 142.447 88.4744 142.854 88.4744C143.299 88.4744 143.683 88.5372 144.005 88.6626C144.329 88.7857 144.578 88.9621 144.751 89.1918C144.926 89.4214 145.013 89.6948 145.013 90.0121C145.013 90.3009 144.919 90.5424 144.729 90.7365C144.54 90.9306 144.275 91.0691 143.934 91.152V91.2088C144.159 91.223 144.362 91.2834 144.545 91.3899C144.727 91.4964 144.872 91.6432 144.981 91.8303C145.09 92.0149 145.145 92.2339 145.145 92.4872C145.145 92.8258 145.045 93.1158 144.846 93.3572C144.65 93.5987 144.378 93.7846 144.03 93.9148C143.684 94.0426 143.287 94.1065 142.84 94.1065C142.404 94.1065 142.014 94.0438 141.668 93.9183C141.325 93.7905 141.051 93.6035 140.848 93.3572C140.647 93.111 140.54 92.8104 140.528 92.4553ZM146.072 96.0455V88.5455H147.564V89.4616H147.631C147.698 89.3149 147.794 89.1657 147.919 89.0142C148.047 88.8603 148.213 88.7325 148.416 88.6307C148.622 88.5265 148.878 88.4744 149.183 88.4744C149.581 88.4744 149.948 88.5786 150.284 88.7869C150.62 88.9929 150.889 89.3042 151.09 89.7209C151.291 90.1352 151.392 90.6548 151.392 91.2798C151.392 91.8883 151.294 92.402 151.097 92.821C150.903 93.2377 150.638 93.5537 150.302 93.7692C149.968 93.9822 149.594 94.0888 149.18 94.0888C148.886 94.0888 148.636 94.0402 148.43 93.9432C148.227 93.8461 148.06 93.7242 147.93 93.5774C147.799 93.4283 147.7 93.2779 147.631 93.1264H147.585V96.0455H146.072ZM147.553 91.2727C147.553 91.5971 147.598 91.88 147.688 92.1214C147.778 92.3629 147.908 92.5511 148.079 92.6861C148.249 92.8187 148.456 92.8849 148.7 92.8849C148.946 92.8849 149.155 92.8175 149.325 92.6825C149.496 92.5452 149.625 92.3558 149.712 92.1143C149.802 91.8705 149.847 91.59 149.847 91.2727C149.847 90.9579 149.804 90.6809 149.716 90.4418C149.628 90.2027 149.499 90.0156 149.329 89.8807C149.158 89.7457 148.949 89.6783 148.7 89.6783C148.454 89.6783 148.246 89.7434 148.075 89.8736C147.907 90.0038 147.778 90.1884 147.688 90.4276C147.598 90.6667 147.553 90.9484 147.553 91.2727ZM153.956 94.103C153.608 94.103 153.298 94.0426 153.026 93.9219C152.753 93.7988 152.538 93.6177 152.379 93.3786C152.223 93.1371 152.145 92.8364 152.145 92.4766C152.145 92.1735 152.201 91.919 152.312 91.7131C152.423 91.5071 152.575 91.3414 152.766 91.2159C152.958 91.0904 153.176 90.9957 153.42 90.9318C153.666 90.8679 153.924 90.8229 154.194 90.7969C154.511 90.7637 154.767 90.733 154.961 90.7045C155.155 90.6738 155.296 90.6288 155.384 90.5696C155.471 90.5104 155.515 90.4228 155.515 90.3068V90.2855C155.515 90.0606 155.444 89.8866 155.302 89.7635C155.162 89.6404 154.963 89.5788 154.705 89.5788C154.433 89.5788 154.216 89.6392 154.055 89.7599C153.894 89.8783 153.788 90.0275 153.736 90.2074L152.337 90.0938C152.408 89.7623 152.547 89.4759 152.756 89.2344C152.964 88.9905 153.233 88.8035 153.562 88.6733C153.893 88.5407 154.277 88.4744 154.712 88.4744C155.015 88.4744 155.305 88.5099 155.582 88.581C155.862 88.652 156.109 88.7621 156.325 88.9112C156.542 89.0604 156.714 89.2521 156.839 89.4865C156.965 89.7185 157.028 89.9967 157.028 90.321V94H155.593V93.2436H155.55C155.463 93.4141 155.346 93.5644 155.199 93.6946C155.052 93.8224 154.876 93.9231 154.67 93.9964C154.464 94.0675 154.226 94.103 153.956 94.103ZM154.389 93.0589C154.612 93.0589 154.808 93.0152 154.979 92.9276C155.149 92.8376 155.283 92.7169 155.38 92.5653C155.477 92.4138 155.526 92.2422 155.526 92.0504V91.4716C155.478 91.5024 155.413 91.5308 155.33 91.5568C155.25 91.5805 155.159 91.603 155.057 91.6243C154.955 91.6432 154.853 91.661 154.751 91.6776C154.65 91.6918 154.557 91.7048 154.474 91.7166C154.297 91.7427 154.142 91.7841 154.009 91.8409C153.877 91.8977 153.774 91.9747 153.7 92.0717C153.627 92.1664 153.59 92.2848 153.59 92.4268C153.59 92.6328 153.665 92.7902 153.814 92.8991C153.965 93.0057 154.157 93.0589 154.389 93.0589ZM162.736 86.5426L163.198 87.5298C163.044 87.6577 162.873 87.7524 162.686 87.8139C162.499 87.8731 162.276 87.9122 162.015 87.9311C161.757 87.95 161.442 87.9631 161.071 87.9702C160.649 87.9749 160.306 88.0424 160.041 88.1726C159.776 88.3028 159.574 88.5076 159.437 88.7869C159.3 89.0639 159.21 89.4261 159.167 89.8736H159.221C159.384 89.5398 159.614 89.2817 159.909 89.0994C160.208 88.9171 160.576 88.826 161.014 88.826C161.478 88.826 161.884 88.9278 162.232 89.1314C162.582 89.335 162.855 89.6274 163.049 90.0085C163.243 90.3897 163.34 90.8466 163.34 91.3793C163.34 91.9332 163.231 92.415 163.013 92.8246C162.798 93.2318 162.491 93.5478 162.093 93.7727C161.696 93.9953 161.222 94.1065 160.673 94.1065C160.121 94.1065 159.645 93.9905 159.245 93.7585C158.848 93.5265 158.54 93.1844 158.322 92.7322C158.107 92.2801 157.999 91.7237 157.999 91.0632V90.6158C157.999 89.3018 158.255 88.3277 158.766 87.6932C159.277 87.0587 160.029 86.7367 161.021 86.7273C161.291 86.7225 161.535 86.7214 161.752 86.7237C161.97 86.7261 162.161 86.7154 162.324 86.6918C162.49 86.6681 162.627 86.6184 162.736 86.5426ZM160.68 92.9347C160.912 92.9347 161.111 92.8743 161.277 92.7536C161.445 92.6328 161.574 92.46 161.664 92.2351C161.756 92.0102 161.802 91.7415 161.802 91.429C161.802 91.1188 161.756 90.8561 161.664 90.6406C161.574 90.4228 161.445 90.2571 161.277 90.1435C161.109 90.0298 160.907 89.973 160.673 89.973C160.498 89.973 160.34 90.005 160.201 90.0689C160.061 90.1328 159.941 90.2275 159.842 90.353C159.745 90.4761 159.669 90.6288 159.615 90.8111C159.563 90.991 159.537 91.197 159.537 91.429C159.537 91.8954 159.637 92.2635 159.838 92.5334C160.042 92.8009 160.323 92.9347 160.68 92.9347ZM166.808 94.1065C166.257 94.1065 165.78 93.9893 165.377 93.755C164.977 93.5182 164.668 93.1892 164.45 92.7678C164.233 92.344 164.124 91.8527 164.124 91.294C164.124 90.7306 164.233 90.2382 164.45 89.8168C164.668 89.393 164.977 89.0639 165.377 88.8295C165.78 88.5928 166.257 88.4744 166.808 88.4744C167.36 88.4744 167.836 88.5928 168.236 88.8295C168.638 89.0639 168.949 89.393 169.166 89.8168C169.384 90.2382 169.493 90.7306 169.493 91.294C169.493 91.8527 169.384 92.344 169.166 92.7678C168.949 93.1892 168.638 93.5182 168.236 93.755C167.836 93.9893 167.36 94.1065 166.808 94.1065ZM166.816 92.9347C167.066 92.9347 167.276 92.8636 167.444 92.7216C167.612 92.5772 167.739 92.3807 167.824 92.1321C167.912 91.8835 167.955 91.6006 167.955 91.2834C167.955 90.9661 167.912 90.6832 167.824 90.4347C167.739 90.1861 167.612 89.9896 167.444 89.8452C167.276 89.7008 167.066 89.6286 166.816 89.6286C166.562 89.6286 166.349 89.7008 166.176 89.8452C166.006 89.9896 165.877 90.1861 165.789 90.4347C165.704 90.6832 165.661 90.9661 165.661 91.2834C165.661 91.6006 165.704 91.8835 165.789 92.1321C165.877 92.3807 166.006 92.5772 166.176 92.7216C166.349 92.8636 166.562 92.9347 166.816 92.9347ZM169.949 89.7351V88.5455H174.892V89.7351H173.134V94H171.692V89.7351H169.949ZM175.809 94V88.5455H177.322V90.6619H177.748L179.232 88.5455H181.008L179.079 91.2514L181.029 94H179.232L177.886 92.0646H177.322V94H175.809ZM183.929 94.1065C183.368 94.1065 182.885 93.9929 182.48 93.7656C182.078 93.536 181.768 93.2116 181.55 92.7926C181.332 92.3712 181.223 91.8729 181.223 91.2976C181.223 90.7365 181.332 90.2441 181.55 89.8203C181.768 89.3965 182.074 89.0663 182.47 88.8295C182.868 88.5928 183.334 88.4744 183.869 88.4744C184.229 88.4744 184.564 88.5324 184.874 88.6484C185.186 88.7621 185.459 88.9337 185.691 89.1634C185.925 89.393 186.107 89.6818 186.238 90.0298C186.368 90.3755 186.433 90.7803 186.433 91.2443V91.6598H181.827V90.7223H185.009C185.009 90.5045 184.962 90.3116 184.867 90.1435C184.772 89.9754 184.641 89.844 184.473 89.7493C184.307 89.6522 184.114 89.6037 183.894 89.6037C183.664 89.6037 183.461 89.657 183.283 89.7635C183.108 89.8677 182.971 90.0085 182.871 90.1861C182.772 90.3613 182.721 90.5566 182.718 90.772V91.6634C182.718 91.9332 182.768 92.1664 182.868 92.3629C182.969 92.5594 183.113 92.7109 183.297 92.8175C183.482 92.924 183.701 92.9773 183.954 92.9773C184.122 92.9773 184.276 92.9536 184.416 92.9062C184.556 92.8589 184.675 92.7879 184.775 92.6932C184.874 92.5985 184.95 92.4825 185.002 92.3452L186.401 92.4375C186.33 92.7737 186.184 93.0672 185.964 93.3182C185.746 93.5668 185.465 93.7609 185.119 93.9006C184.776 94.0379 184.379 94.1065 183.929 94.1065Z" fill="black"/>
</g>
<defs>
<filter id="filter0_ddddd_138_37" x="-9" y="65" width="136" height="165" filterUnits="userSpaceOnUse" color-interpolation-filters="sRGB">
<feFlood flood-opacity="0" result="BackgroundImageFix"/>
<feColorMatrix in="SourceAlpha" type="matrix" values="0 0 0 0 0 0 0 0 0 0 0 0 0 0 0 0 0 0 127 0" result="hardAlpha"/>
<feOffset/>
<feColorMatrix type="matrix" values="0 0 0 0 0 0 0 0 0 0 0 0 0 0 0 0 0 0 0.1 0"/>
<feBlend mode="normal" in2="BackgroundImageFix" result="effect1_dropShadow_138_37"/>
<feColorMatrix in="SourceAlpha" type="matrix" values="0 0 0 0 0 0 0 0 0 0 0 0 0 0 0 0 0 0 127 0" result="hardAlpha"/>
<feOffset dy="3"/>
<feGaussianBlur stdDeviation="3"/>
<feColorMatrix type="matrix" values="0 0 0 0 0 0 0 0 0 0 0 0 0 0 0 0 0 0 0.1 0"/>
<feBlend mode="normal" in2="effect1_dropShadow_138_37" result="effect2_dropShadow_138_37"/>
<feColorMatrix in="SourceAlpha" type="matrix" values="0 0 0 0 0 0 0 0 0 0 0 0 0 0 0 0 0 0 127 0" result="hardAlpha"/>
<feOffset dy="11"/>
<feGaussianBlur stdDeviation="5.5"/>
<feColorMatrix type="matrix" values="0 0 0 0 0 0 0 0 0 0 0 0 0 0 0 0 0 0 0.09 0"/>
<feBlend mode="normal" in2="effect2_dropShadow_138_37" result="effect3_dropShadow_138_37"/>
<feColorMatrix in="SourceAlpha" type="matrix" values="0 0 0 0 0 0 0 0 0 0 0 0 0 0 0 0 0 0 127 0" result="hardAlpha"/>
<feOffset dy="25"/>
<feGaussianBlur stdDeviation="7.5"/>
<feColorMatrix type="matrix" values="0 0 0 0 0 0 0 0 0 0 0 0 0 0 0 0 0 0 0.05 0"/>
<feBlend mode="normal" in2="effect3_dropShadow_138_37" result="effect4_dropShadow_138_37"/>
<feColorMatrix in="SourceAlpha" type="matrix" values="0 0 0 0 0 0 0 0 0 0 0 0 0 0 0 0 0 0 127 0" result="hardAlpha"/>
<feOffset dy="44"/>
<feGaussianBlur stdDeviation="9"/>
<feColorMatrix type="matrix" values="0 0 0 0 0 0 0 0 0 0 0 0 0 0 0 0 0 0 0.01 0"/>
<feBlend mode="normal" in2="effect4_dropShadow_138_37" result="effect5_dropShadow_138_37"/>
<feBlend mode="normal" in="SourceGraphic" in2="effect5_dropShadow_138_37" result="shape"/>
</filter>
<filter id="filter1_ddddd_138_37" x="177" y="2" width="136" height="165" filterUnits="userSpaceOnUse" color-interpolation-filters="sRGB">
<feFlood flood-opacity="0" result="BackgroundImageFix"/>
<feColorMatrix in="SourceAlpha" type="matrix" values="0 0 0 0 0 0 0 0 0 0 0 0 0 0 0 0 0 0 127 0" result="hardAlpha"/>
<feOffset/>
<feColorMatrix type="matrix" values="0 0 0 0 0 0 0 0 0 0 0 0 0 0 0 0 0 0 0.1 0"/>
<feBlend mode="normal" in2="BackgroundImageFix" result="effect1_dropShadow_138_37"/>
<feColorMatrix in="SourceAlpha" type="matrix" values="0 0 0 0 0 0 0 0 0 0 0 0 0 0 0 0 0 0 127 0" result="hardAlpha"/>
<feOffset dy="3"/>
<feGaussianBlur stdDeviation="3"/>
<feColorMatrix type="matrix" values="0 0 0 0 0 0 0 0 0 0 0 0 0 0 0 0 0 0 0.1 0"/>
<feBlend mode="normal" in2="effect1_dropShadow_138_37" result="effect2_dropShadow_138_37"/>
<feColorMatrix in="SourceAlpha" type="matrix" values="0 0 0 0 0 0 0 0 0 0 0 0 0 0 0 0 0 0 127 0" result="hardAlpha"/>
<feOffset dy="11"/>
<feGaussianBlur stdDeviation="5.5"/>
<feColorMatrix type="matrix" values="0 0 0 0 0 0 0 0 0 0 0 0 0 0 0 0 0 0 0.09 0"/>
<feBlend mode="normal" in2="effect2_dropShadow_138_37" result="effect3_dropShadow_138_37"/>
<feColorMatrix in="SourceAlpha" type="matrix" values="0 0 0 0 0 0 0 0 0 0 0 0 0 0 0 0 0 0 127 0" result="hardAlpha"/>
<feOffset dy="25"/>
<feGaussianBlur stdDeviation="7.5"/>
<feColorMatrix type="matrix" values="0 0 0 0 0 0 0 0 0 0 0 0 0 0 0 0 0 0 0.05 0"/>
<feBlend mode="normal" in2="effect3_dropShadow_138_37" result="effect4_dropShadow_138_37"/>
<feColorMatrix in="SourceAlpha" type="matrix" values="0 0 0 0 0 0 0 0 0 0 0 0 0 0 0 0 0 0 127 0" result="hardAlpha"/>
<feOffset dy="44"/>
<feGaussianBlur stdDeviation="9"/>
<feColorMatrix type="matrix" values="0 0 0 0 0 0 0 0 0 0 0 0 0 0 0 0 0 0 0.01 0"/>
<feBlend mode="normal" in2="effect4_dropShadow_138_37" result="effect5_dropShadow_138_37"/>
<feBlend mode="normal" in="SourceGraphic" in2="effect5_dropShadow_138_37" result="shape"/>
</filter>
<filter id="filter2_b_138_37" x="-7" y="-7" width="320" height="194" filterUnits="userSpaceOnUse" color-interpolation-filters="sRGB">
<feFlood flood-opacity="0" result="BackgroundImageFix"/>
<feGaussianBlur in="BackgroundImageFix" stdDeviation="3.5"/>
<feComposite in2="SourceAlpha" operator="in" result="effect1_backgroundBlur_138_37"/>
<feBlend mode="normal" in="SourceGraphic" in2="effect1_backgroundBlur_138_37" result="shape"/>
</filter>
<clipPath id="clip0_138_37">
<rect width="306" height="180" fill="white"/>
</clipPath>
</defs>
</svg>
