<svg width="24" height="19" viewBox="0 0 24 19" fill="none" xmlns="http://www.w3.org/2000/svg">
<g clip-path="url(#clip0_143_9)">
<path d="M6.77425 19C5.80316 19 4.90226 18.7738 4.07157 18.3214C3.24088 17.8516 2.52133 17.1905 1.91294 16.3379C1.31624 15.4853 0.848244 14.4849 0.508946 13.3365C0.169649 12.1708 0 10.8919 0 9.5C0 8.10806 0.169649 6.83791 0.508946 5.68956C0.848244 4.52381 1.32209 3.51465 1.93049 2.66209C2.53888 1.80952 3.25843 1.15705 4.08912 0.704671C4.93151 0.23489 5.84996 0 6.84445 0C8.00274 0 9.03819 0.287088 9.95078 0.861264C10.8634 1.43544 11.618 2.26191 12.2147 3.34066L10.0034 6.31593C9.58223 5.63736 9.12593 5.13278 8.63454 4.8022C8.15484 4.45421 7.61665 4.28022 7.01995 4.28022C6.49345 4.28022 6.01376 4.40202 5.58086 4.64561C5.14796 4.88919 4.77942 5.24588 4.47522 5.71566C4.17102 6.16804 3.93117 6.71612 3.75567 7.35989C3.59187 7.98626 3.50997 8.69963 3.50997 9.5C3.50997 10.2656 3.59187 10.9702 3.75567 11.614C3.93117 12.2578 4.17102 12.8146 4.47522 13.2843C4.77942 13.7367 5.14211 14.0934 5.56331 14.3544C5.99621 14.598 6.47005 14.7198 6.98485 14.7198C7.49965 14.7198 8.00274 14.598 8.49414 14.3544C8.98554 14.0934 9.48278 13.6584 9.98588 13.0495L11.9339 16.6772C11.2319 17.4254 10.4188 17.9995 9.49448 18.3997C8.57019 18.7999 7.66344 19 6.77425 19ZM8.86269 15.9986V9.10852H11.9339V16.6772L8.86269 15.9986Z" fill="white"/>
<path d="M17.331 7.43819H23.0348V11.3008H17.331V7.43819ZM17.5767 14.6415H24V18.6346H14.137V0.365385H23.7719V4.35852H17.5767V14.6415Z" fill="white"/>
</g>
<defs>
<clipPath id="clip0_143_9">
<rect width="24" height="19" fill="white"/>
</clipPath>
</defs>
</svg>
