<svg width="24" height="19" viewBox="0 0 24 19" fill="none" xmlns="http://www.w3.org/2000/svg">
<g clip-path="url(#clip0_143_7)">
<path d="M4.84933 19C3.82492 19 2.89363 18.7738 2.05548 18.3214C1.23063 17.8516 0.545466 17.1818 0 16.3118L2.15526 12.9712C2.52777 13.5975 2.91359 14.076 3.31271 14.4066C3.71183 14.7198 4.13091 14.8764 4.56994 14.8764C5.7407 14.8764 6.32608 13.989 6.32608 12.2143V4.35852H1.49671V0.365385H10.2375V11.9011C10.2375 14.2848 9.77848 16.0682 8.8605 17.2514C7.94252 18.4171 6.60546 19 4.84933 19Z" fill="white"/>
<path d="M17.8136 19C16.6695 19 15.5652 18.8173 14.5009 18.4519C13.4499 18.0691 12.5918 17.582 11.9266 16.9904L13.2237 13.1799C13.849 13.7019 14.5674 14.1369 15.379 14.4849C16.2038 14.8155 17.022 14.9808 17.8336 14.9808C18.379 14.9808 18.8181 14.9199 19.1507 14.7981C19.4833 14.6589 19.7227 14.4849 19.8691 14.2761C20.0287 14.0499 20.1086 13.7889 20.1086 13.4931C20.1086 13.0756 19.9622 12.745 19.6695 12.5014C19.3768 12.2578 18.9977 12.0577 18.532 11.9011C18.0664 11.7445 17.5475 11.5879 16.9755 11.4313C16.4167 11.2747 15.8513 11.0746 15.2792 10.831C14.7204 10.5875 14.2082 10.2743 13.7426 9.89148C13.2769 9.4913 12.8978 8.97802 12.6051 8.35165C12.3124 7.70788 12.166 6.89881 12.166 5.92445C12.166 4.8283 12.3922 3.83654 12.8445 2.94918C13.3102 2.06181 14.002 1.34844 14.92 0.809066C15.838 0.269689 16.9821 0 18.3524 0C19.2704 0 20.1684 0.139194 21.0465 0.417583C21.9379 0.678572 22.7295 1.07006 23.4213 1.59203L22.204 5.42857C21.5387 4.95879 20.8802 4.61081 20.2283 4.38462C19.5764 4.14103 18.9445 4.01923 18.3325 4.01923C17.787 4.01923 17.348 4.09753 17.0154 4.25412C16.6828 4.39332 16.4433 4.58471 16.297 4.8283C16.1506 5.07189 16.0774 5.35028 16.0774 5.66346C16.0774 6.06364 16.2171 6.38553 16.4965 6.62912C16.7892 6.85531 17.1684 7.0467 17.634 7.2033C18.113 7.34249 18.6318 7.49039 19.1906 7.64698C19.7627 7.80357 20.3281 8.00366 20.8869 8.24725C21.4589 8.47344 21.9778 8.78663 22.4434 9.18681C22.9091 9.5696 23.2816 10.0829 23.561 10.7266C23.8537 11.353 24 12.1447 24 13.1016C24 14.163 23.7672 15.1461 23.3015 16.0508C22.8492 16.9382 22.164 17.6516 21.2461 18.1909C20.3414 18.7303 19.1972 19 17.8136 19Z" fill="white"/>
</g>
<defs>
<clipPath id="clip0_143_7">
<rect width="24" height="19" fill="white"/>
</clipPath>
</defs>
</svg>
