<svg width="126" height="24" viewBox="0 0 126 24" fill="none" xmlns="http://www.w3.org/2000/svg">
<g clip-path="url(#clip0_122_12)">
<g clip-path="url(#clip1_122_12)">
<path d="M1.87892 1.01979L1.87892 1.01978C1.90674 1.00816 1.93007 1.003 1.94961 1.00111C2.0209 0.994221 2.09418 1.01918 2.14837 1.07399L2.14837 1.07399L2.1496 1.07523L6.53382 5.49366L7.01479 5.97839L7.64133 5.70684C8.98029 5.12654 10.561 4.79017 12 4.79017C13.4086 4.79017 14.9006 5.1051 16.3531 5.72206L16.9767 5.98694L17.4539 5.506L21.8503 1.07523L21.8516 1.07399C21.9229 1.00188 22.0266 0.980628 22.1215 1.01999C22.2141 1.0589 22.28 1.15325 22.28 1.26394V13.8951C22.28 18.8138 17.7742 23 12 23C6.22571 23 1.71997 18.8138 1.71997 13.8951V1.26394C1.71997 1.15306 1.78605 1.05857 1.87892 1.01979ZM10.4933 12.0004C10.4933 10.4079 9.21023 9.10574 7.6133 9.10574C6.01637 9.10574 4.7333 10.4079 4.7333 12.0004C4.7333 13.5929 6.01638 14.8951 7.6133 14.8951C9.21023 14.8951 10.4933 13.5929 10.4933 12.0004ZM19.2666 12.0004C19.2666 10.4079 17.9836 9.10574 16.3866 9.10574C14.7897 9.10574 13.5066 10.4079 13.5066 12.0004C13.5066 13.5929 14.7897 14.8951 16.3866 14.8951C17.9836 14.8951 19.2666 13.5929 19.2666 12.0004Z" fill="white" stroke="white" stroke-width="2"/>
<circle cx="7.44005" cy="12" r="2.64" fill="#41BA66"/>
<circle cx="16.5599" cy="12" r="2.64" fill="#41BA66"/>
<path d="M13.2111 18.27C12.7261 19.11 11.5137 19.11 11.0287 18.27C10.5437 17.43 11.1499 16.38 12.1199 16.38C13.0898 16.38 13.6961 17.43 13.2111 18.27Z" fill="#121927"/>
</g>
<path d="M38.7773 14.0586H35.2031V11.5879H38.7773C39.3047 11.5879 39.7279 11.5 40.0469 11.3242C40.3724 11.1484 40.61 10.9076 40.7598 10.6016C40.916 10.2891 40.9941 9.9375 40.9941 9.54688C40.9941 9.14323 40.916 8.76888 40.7598 8.42383C40.61 8.07227 40.3724 7.78906 40.0469 7.57422C39.7279 7.35938 39.3047 7.25195 38.7773 7.25195H36.3555V19H33.1719V4.78125H38.7773C39.9102 4.78125 40.8802 4.98633 41.6875 5.39648C42.5013 5.80664 43.123 6.36979 43.5527 7.08594C43.9889 7.79557 44.207 8.60938 44.207 9.52734C44.207 10.4453 43.9889 11.2428 43.5527 11.9199C43.123 12.597 42.5013 13.1243 41.6875 13.502C40.8802 13.873 39.9102 14.0586 38.7773 14.0586Z" fill="white"/>
<path d="M57.9961 11.5781V12.2129C57.9961 13.2936 57.8464 14.2637 57.5469 15.123C57.2539 15.9824 56.834 16.7148 56.2871 17.3203C55.7467 17.9258 55.1022 18.3913 54.3535 18.7168C53.6113 19.0358 52.7878 19.1953 51.8828 19.1953C50.9779 19.1953 50.151 19.0358 49.4023 18.7168C48.6536 18.3913 48.0026 17.9258 47.4492 17.3203C46.9023 16.7148 46.4792 15.9824 46.1797 15.123C45.8802 14.2637 45.7305 13.2936 45.7305 12.2129V11.5781C45.7305 10.4974 45.8802 9.52734 46.1797 8.66797C46.4792 7.80208 46.8991 7.06641 47.4395 6.46094C47.9863 5.85547 48.6341 5.39323 49.3828 5.07422C50.1315 4.7487 50.9583 4.58594 51.8633 4.58594C52.7682 4.58594 53.5951 4.7487 54.3438 5.07422C55.0924 5.39323 55.737 5.85547 56.2773 6.46094C56.8242 7.06641 57.2474 7.80208 57.5469 8.66797C57.8464 9.52734 57.9961 10.4974 57.9961 11.5781ZM54.7832 12.2129V11.5586C54.7832 10.8359 54.7181 10.1979 54.5879 9.64453C54.4577 9.08464 54.2689 8.61589 54.0215 8.23828C53.7741 7.86068 53.4681 7.57747 53.1035 7.38867C52.7389 7.19336 52.3255 7.0957 51.8633 7.0957C51.3815 7.0957 50.9616 7.19336 50.6035 7.38867C50.2454 7.57747 49.9427 7.86068 49.6953 8.23828C49.4544 8.61589 49.2689 9.08464 49.1387 9.64453C49.015 10.1979 48.9531 10.8359 48.9531 11.5586V12.2129C48.9531 12.929 49.015 13.5671 49.1387 14.127C49.2689 14.6803 49.4577 15.1491 49.7051 15.5332C49.9525 15.9173 50.2552 16.207 50.6133 16.4023C50.9779 16.5977 51.401 16.6953 51.8828 16.6953C52.3451 16.6953 52.7552 16.5977 53.1133 16.4023C53.4779 16.207 53.7839 15.9173 54.0312 15.5332C54.2786 15.1491 54.4642 14.6803 54.5879 14.127C54.7181 13.5671 54.7832 12.929 54.7832 12.2129Z" fill="white"/>
<path d="M63.1328 4.78125V19H59.9492V4.78125H63.1328ZM71.6289 4.78125L66.0625 11.8906L62.8203 15.4062L62.2441 12.4473L64.3828 9.38086L67.7227 4.78125H71.6289ZM67.9375 19L64.0117 12.5059L66.4336 10.6211L71.707 19H67.9375Z" fill="white"/>
<path d="M84.2461 11.5781V12.2129C84.2461 13.2936 84.0964 14.2637 83.7969 15.123C83.5039 15.9824 83.084 16.7148 82.5371 17.3203C81.9967 17.9258 81.3522 18.3913 80.6035 18.7168C79.8613 19.0358 79.0378 19.1953 78.1328 19.1953C77.2279 19.1953 76.401 19.0358 75.6523 18.7168C74.9036 18.3913 74.2526 17.9258 73.6992 17.3203C73.1523 16.7148 72.7292 15.9824 72.4297 15.123C72.1302 14.2637 71.9805 13.2936 71.9805 12.2129V11.5781C71.9805 10.4974 72.1302 9.52734 72.4297 8.66797C72.7292 7.80208 73.1491 7.06641 73.6895 6.46094C74.2363 5.85547 74.8841 5.39323 75.6328 5.07422C76.3815 4.7487 77.2083 4.58594 78.1133 4.58594C79.0182 4.58594 79.8451 4.7487 80.5938 5.07422C81.3424 5.39323 81.987 5.85547 82.5273 6.46094C83.0742 7.06641 83.4974 7.80208 83.7969 8.66797C84.0964 9.52734 84.2461 10.4974 84.2461 11.5781ZM81.0332 12.2129V11.5586C81.0332 10.8359 80.9681 10.1979 80.8379 9.64453C80.7077 9.08464 80.5189 8.61589 80.2715 8.23828C80.0241 7.86068 79.7181 7.57747 79.3535 7.38867C78.9889 7.19336 78.5755 7.0957 78.1133 7.0957C77.6315 7.0957 77.2116 7.19336 76.8535 7.38867C76.4954 7.57747 76.1927 7.86068 75.9453 8.23828C75.7044 8.61589 75.5189 9.08464 75.3887 9.64453C75.265 10.1979 75.2031 10.8359 75.2031 11.5586V12.2129C75.2031 12.929 75.265 13.5671 75.3887 14.127C75.5189 14.6803 75.7077 15.1491 75.9551 15.5332C76.2025 15.9173 76.5052 16.207 76.8633 16.4023C77.2279 16.5977 77.651 16.6953 78.1328 16.6953C78.5951 16.6953 79.0052 16.5977 79.3633 16.4023C79.7279 16.207 80.0339 15.9173 80.2812 15.5332C80.5286 15.1491 80.7142 14.6803 80.8379 14.127C80.9681 13.5671 81.0332 12.929 81.0332 12.2129Z" fill="white"/>
<path d="M90.7012 19H87.5762L87.5957 16.5391H90.7012C91.4108 16.5391 92.0098 16.3763 92.498 16.0508C92.9863 15.7188 93.3574 15.2305 93.6113 14.5859C93.8652 13.9349 93.9922 13.1439 93.9922 12.2129V11.5586C93.9922 10.8555 93.9206 10.237 93.7773 9.70312C93.6341 9.16276 93.4225 8.71029 93.1426 8.3457C92.8626 7.98112 92.5143 7.70768 92.0977 7.52539C91.6875 7.3431 91.2155 7.25195 90.6816 7.25195H87.5176V4.78125H90.6816C91.6452 4.78125 92.5241 4.94401 93.3184 5.26953C94.1191 5.59505 94.8092 6.06055 95.3887 6.66602C95.9746 7.27148 96.4271 7.98763 96.7461 8.81445C97.0651 9.64128 97.2246 10.5625 97.2246 11.5781V12.2129C97.2246 13.222 97.0651 14.1432 96.7461 14.9766C96.4271 15.8034 95.9746 16.5195 95.3887 17.125C94.8092 17.724 94.1224 18.1862 93.3281 18.5117C92.5339 18.8372 91.6582 19 90.7012 19ZM89.3828 4.78125V19H86.1992V4.78125H89.3828Z" fill="white"/>
<path d="M108.836 16.5391V19H101.268V16.5391H108.836ZM102.352 4.78125V19H99.168V4.78125H102.352ZM107.859 10.5039V12.8867H101.268V10.5039H107.859ZM108.846 4.78125V7.25195H101.268V4.78125H108.846Z" fill="white"/>
<path d="M111.922 4.78125H114.559L117.977 14.9473L121.385 4.78125H124.021L119.041 19H116.902L111.922 4.78125ZM110.398 4.78125H113.084L113.582 15.3184V19H110.398V4.78125ZM122.859 4.78125H125.555V19H122.361V15.3184L122.859 4.78125Z" fill="white"/>
</g>
<defs>
<clipPath id="clip0_122_12">
<rect width="126" height="24" fill="white"/>
</clipPath>
<clipPath id="clip1_122_12">
<rect width="24" height="24" fill="white"/>
</clipPath>
</defs>
</svg>
