<svg width="22" height="22" viewBox="0 0 22 22" fill="none" xmlns="http://www.w3.org/2000/svg">
<path d="M11 0C10.0289 0 9.24001 0.788906 9.24001 1.76C9.24001 2.73109 10.0289 3.52 11 3.52C11.9711 3.52 12.76 2.73109 12.76 1.76C12.76 0.788906 11.9711 0 11 0ZM8.52501 2.68125C6.51407 3.54234 5.28001 5.48109 5.28001 7.92C5.28001 12.76 3.60767 13.9752 2.61251 14.6987C2.17079 15.0184 1.76001 15.3158 1.76001 15.84C1.76001 17.6911 4.52376 18.48 11 18.48C17.4763 18.48 20.24 17.6911 20.24 15.84C20.24 15.3158 19.8292 15.0184 19.3875 14.6987C18.3924 13.9752 16.72 12.76 16.72 7.92C16.72 5.47422 15.4877 3.54062 13.475 2.68125C13.0986 3.68156 12.1292 4.4 11 4.4C9.87079 4.4 8.90142 3.67984 8.52501 2.68125ZM8.36001 19.305C8.36001 19.3222 8.36001 19.3428 8.36001 19.36C8.36001 20.8158 9.54423 22 11 22C12.4558 22 13.64 20.8158 13.64 19.36C13.64 19.3428 13.64 19.3222 13.64 19.305C12.8116 19.3394 11.9316 19.36 11 19.36C10.0684 19.36 9.18845 19.3394 8.36001 19.305Z" fill="white"/>
</svg>
