<svg width="24" height="24" viewBox="0 0 24 24" fill="none" xmlns="http://www.w3.org/2000/svg">
<path d="M10.0799 1.44C5.56867 1.44 1.91992 5.08875 1.91992 9.6C1.91992 14.1113 5.56867 17.76 10.0799 17.76C11.6905 17.76 13.1812 17.2875 14.4449 16.485L20.3399 22.38L22.3799 20.34L16.5599 14.535C17.6062 13.1625 18.2399 11.4619 18.2399 9.6C18.2399 5.08875 14.5912 1.44 10.0799 1.44ZM10.0799 3.36C13.5355 3.36 16.3199 6.14438 16.3199 9.6C16.3199 13.0556 13.5355 15.84 10.0799 15.84C6.6243 15.84 3.83992 13.0556 3.83992 9.6C3.83992 6.14438 6.6243 3.36 10.0799 3.36Z" fill="white"/>
</svg>
