<svg width="306" height="180" viewBox="0 0 306 180" fill="none" xmlns="http://www.w3.org/2000/svg">
<g clip-path="url(#clip0_109_171)">
<rect width="306" height="180" fill="white"/>
<rect x="18" y="31" width="22" height="11" fill="white"/>
<path d="M247.32 29.68H58.68C49.9973 29.68 42.96 36.7173 42.96 45.4V202.6C42.96 211.283 49.9973 218.32 58.68 218.32H247.32C256.003 218.32 263.04 211.283 263.04 202.6V45.4C263.04 36.7173 256.003 29.68 247.32 29.68ZM242.08 45.4C244.972 45.4 247.32 47.7475 247.32 50.64C247.32 53.5325 244.972 55.88 242.08 55.88C239.187 55.88 236.84 53.5325 236.84 50.64C236.84 47.7475 239.187 45.4 242.08 45.4ZM226.36 45.4C229.252 45.4 231.6 47.7475 231.6 50.64C231.6 53.5325 229.252 55.88 226.36 55.88C223.467 55.88 221.12 53.5325 221.12 50.64C221.12 47.7475 223.467 45.4 226.36 45.4ZM210.64 45.4C213.532 45.4 215.88 47.7475 215.88 50.64C215.88 53.5325 213.532 55.88 210.64 55.88C207.747 55.88 205.4 53.5325 205.4 50.64C205.4 47.7475 207.747 45.4 210.64 45.4ZM252.56 202.6C252.56 205.492 250.212 207.84 247.32 207.84H58.68C55.7875 207.84 53.44 205.492 53.44 202.6V71.6H252.56V202.6Z" fill="black"/>
<path d="M154.061 100.939C153.475 100.354 152.525 100.354 151.939 100.939L142.393 110.485C141.808 111.071 141.808 112.021 142.393 112.607C142.979 113.192 143.929 113.192 144.515 112.607L153 104.121L161.485 112.607C162.071 113.192 163.021 113.192 163.607 112.607C164.192 112.021 164.192 111.071 163.607 110.485L154.061 100.939ZM154.5 163V102H151.5V163H154.5Z" fill="black"/>
</g>
<defs>
<clipPath id="clip0_109_171">
<rect width="306" height="180" fill="white"/>
</clipPath>
</defs>
</svg>
