<svg width="306" height="180" viewBox="0 0 306 180" fill="none" xmlns="http://www.w3.org/2000/svg">
<rect width="306" height="180" fill="white"/>
<g clip-path="url(#clip0_129_4)">
<path d="M98.2799 35.28C93.2518 35.28 89.1599 39.3719 89.1599 44.4V135.6C89.1599 140.628 93.2518 144.72 98.2799 144.72H174.28V138.64H98.2799C96.6049 138.64 95.2399 137.278 95.2399 135.6V59.6H210.76V109.232L216.84 114.932V44.4C216.84 39.3719 212.748 35.28 207.72 35.28H98.2799ZM101.32 44.4C102.998 44.4 104.36 45.7619 104.36 47.44C104.36 49.1181 102.998 50.48 101.32 50.48C99.6418 50.48 98.2799 49.1181 98.2799 47.44C98.2799 45.7619 99.6418 44.4 101.32 44.4ZM110.44 44.4C112.118 44.4 113.48 45.7619 113.48 47.44C113.48 49.1181 112.118 50.48 110.44 50.48C108.762 50.48 107.4 49.1181 107.4 47.44C107.4 45.7619 108.762 44.4 110.44 44.4ZM119.56 44.4C121.238 44.4 122.6 45.7619 122.6 47.44C122.6 49.1181 121.238 50.48 119.56 50.48C117.882 50.48 116.52 49.1181 116.52 47.44C116.52 45.7619 117.882 44.4 119.56 44.4ZM183.05 93.0638C182.758 93.0975 182.472 93.1708 182.195 93.2894C181.079 93.7728 180.36 94.8701 180.36 96.08V154.6C180.36 155.828 181.096 156.943 182.23 157.408C183.364 157.883 184.671 157.613 185.543 156.743L196.076 146.305L204.401 164.225C204.738 164.96 205.354 165.527 206.111 165.81C206.454 165.938 206.809 166 207.168 166C207.602 166 208.034 165.906 208.438 165.721L217.362 161.773C218.889 161.073 219.552 159.267 218.853 157.741L210.226 138.64H225.96C227.206 138.64 228.327 138.255 228.786 137.096C229.245 135.935 228.95 134.611 228.038 133.759L185.478 93.8594C184.817 93.2347 183.923 92.9626 183.05 93.0638Z" fill="black"/>
</g>
<defs>
<clipPath id="clip0_129_4">
<rect width="152" height="152" fill="white" transform="translate(77 14)"/>
</clipPath>
</defs>
</svg>
